<svg xmlns="http://www.w3.org/2000/svg" viewBox="0 0 512 512">
  <!-- Background -->
  <rect width="512" height="512" rx="114" fill="#0d0d0d"/>
  <!-- Potato body -->
  <ellipse cx="256" cy="295" rx="175" ry="145" fill="#d4882d"/>
  <!-- Skin spots -->
  <circle cx="145" cy="320" r="13" fill="#b8731f"/>
  <circle cx="360" cy="350" r="10" fill="#b8731f"/>
  <circle cx="280" cy="170" r="9"  fill="#b8731f"/>
  <circle cx="185" cy="390" r="7"  fill="#b8731f"/>
  <!-- Left eye (sleepy) -->
  <circle cx="185" cy="258" r="40" fill="white"/>
  <circle cx="185" cy="263" r="25" fill="#1a1a1a"/>
  <circle cx="196" cy="252" r="9"  fill="white"/>
  <path d="M145 244 Q185 224 225 244 Q225 262 185 266 Q145 262 145 244" fill="#d4882d"/>
  <!-- Right eye (sleepy) -->
  <circle cx="325" cy="252" r="40" fill="white"/>
  <circle cx="325" cy="257" r="25" fill="#1a1a1a"/>
  <circle cx="336" cy="246" r="9"  fill="white"/>
  <path d="M285 238 Q325 218 365 238 Q365 256 325 260 Q285 256 285 238" fill="#d4882d"/>
  <!-- Smile -->
  <path d="M200 340 Q256 374 310 340" stroke="#8b5e1a" stroke-width="11" fill="none" stroke-linecap="round"/>
  <!-- Remote control -->
  <rect x="390" y="260" width="68" height="120" rx="16" fill="#374151"/>
  <circle cx="424" cy="292" r="11" fill="#dc2626"/>
  <rect x="402" y="316" width="44" height="8"  rx="4" fill="#6b7280"/>
  <rect x="402" y="333" width="44" height="8"  rx="4" fill="#6b7280"/>
  <rect x="402" y="350" width="44" height="8"  rx="4" fill="#6b7280"/>
</svg>
